<svg width="374" height="301" viewBox="0 0 374 301" fill="none" xmlns="http://www.w3.org/2000/svg">
<path d="M28.7695 0.5H124.659L125.232 0.506836C130.955 0.635646 136.506 2.47991 141.161 5.79785L141.624 6.13477L190.969 43.0029C191.401 43.3258 191.926 43.5 192.466 43.5H345.23C352.728 43.5 359.919 46.4677 365.221 51.75C370.522 57.0324 373.5 64.1973 373.5 71.667V273.928C373.491 280.972 370.678 287.725 365.679 292.706C360.679 297.688 353.901 300.491 346.83 300.5H28.7695C21.2716 300.5 14.0806 297.532 8.7793 292.25C3.47798 286.968 0.5 279.803 0.5 272.333V28.667C0.5 21.1973 3.47798 14.0324 8.7793 8.75C14.0806 3.46769 21.2716 0.5 28.7695 0.5Z" fill="#D4D4D4" stroke="#D4D4D4"/>
</svg>
