<svg width="54" height="36" viewBox="0 0 54 36" fill="none" xmlns="http://www.w3.org/2000/svg">
<path d="M48.9584 0.113403C50.779 0.422509 52.3713 1.38557 53.2073 3.47572L53.2261 3.52198C56.2368 12.7342 41.372 22.5372 32.9602 22.9389C31.0976 23.2774 29.8573 24.3141 29.585 26.3369C29.1974 28.8855 29.9663 32.1195 27.978 34.1508C26.3501 35.7636 22.9477 35.9634 20.5152 35.4229C19.8762 35.2673 18.219 34.6176 18.9041 33.8816C20.2198 33.1709 22.5601 34.0772 23.9826 33.5136C26.4088 32.6515 25.4911 29.5142 25.4345 27.525C25.3109 25.6977 25.929 24.2951 25.709 23.1807C25.1454 22.6277 22.7172 25.5253 22.0028 26.2801C17.293 31.7053 10.5572 39.538 3.72295 34.237C2.06782 32.7167 1.73051 30.2249 2.53503 28.181C4.91716 22.4889 9.76105 20.6868 14.8061 17.2866C15.8767 16.5465 16.8949 15.7138 17.5423 14.5804C18.8664 12.2989 17.1861 10.4422 14.892 10.4443C13.0734 10.4169 11.2737 11.0625 9.78829 12.097C8.31124 13.1253 7.33911 14.6203 6.5283 16.2016C5.66512 17.888 5.27124 19.81 4.00579 21.2756C2.8472 22.7118 0.557246 23.4141 0.0418496 21.3429C-0.255655 19.0467 1.08102 16.3719 2.52874 14.696C5.48284 11.2791 9.15766 8.4151 13.5595 7.48989C15.6944 7.042 18.5123 7.32797 20.5718 8.24688C22.2269 8.98495 23.6684 10.4632 23.5552 12.3956C23.4924 13.4575 22.9728 14.4416 22.3296 15.2638C20.8986 17.089 18.7763 18.2791 16.9808 19.7322C15.3089 21.0842 12.7508 23.7737 13.218 26.1666C13.4442 27.3294 14.6971 27.4724 15.6357 27.0434C17.9403 25.8722 19.5682 23.801 21.59 21.6856C23.1634 19.9277 24.7767 18.092 25.7069 15.9241C27.1295 12.6795 26.6183 9.00808 26.9346 5.57217C27.779 -1.88632 34.3786 2.58415 30.9279 9.98376C29.7044 12.7489 27.978 20.6721 33.4253 20.0896C36.35 19.7763 39.7651 17.5957 42.1891 15.9556L42.2373 15.922C43.8338 14.8033 45.4177 13.4113 46.6664 11.8005C47.6678 10.5158 48.4765 9.35714 48.4912 8.0366C48.5059 6.96209 47.7223 6.20089 46.7544 5.78665C44.5985 4.86354 41.7408 6.19038 39.9075 7.31536C38.4933 8.1838 37.2007 9.20574 36.1762 10.5221C35.7425 11.0793 35.4156 11.7227 34.9736 12.2653C34.3806 12.9928 33.3038 12.5302 32.9685 11.8132C32.7444 11.3295 32.7465 10.7723 32.8114 10.2424C32.8198 10.1793 32.8282 10.1162 32.8366 10.0531C33.0628 8.55388 33.8066 7.22283 34.8143 6.11047C35.8933 4.92031 37.2174 3.78272 38.5709 2.92269C40.381 1.77038 42.3441 0.887219 44.4183 0.39307C45.8974 0.0419095 47.5002 -0.130517 48.9542 0.115506L48.9584 0.113403Z" fill="#FAFAFA"/>
<path d="M31.8847 33.9799C31.8847 33.5568 31.9745 33.2116 32.1541 32.9442C32.3337 32.6807 32.5772 32.5251 32.8845 32.4772L32.8845 33.3273C32.8087 33.3593 32.7508 33.4271 32.7109 33.5309C32.671 33.6387 32.651 33.7744 32.651 33.938C32.651 34.2094 32.7029 34.407 32.8067 34.5307C32.9105 34.6545 33.0721 34.7163 33.2916 34.7163L33.9562 34.7163L33.9442 34.7642C33.7207 34.7243 33.5431 34.6086 33.4114 34.417C33.2836 34.2254 33.2198 33.9879 33.2198 33.7045C33.2198 33.4331 33.2817 33.1956 33.4054 32.992C33.5331 32.7925 33.7107 32.6368 33.9382 32.5251C34.1657 32.4133 34.4332 32.3574 34.7405 32.3574C35.0518 32.3574 35.3232 32.4153 35.5547 32.531C35.7862 32.6468 35.9658 32.8084 36.0936 33.016C36.2213 33.2275 36.2852 33.473 36.2852 33.7524C36.2852 34.0398 36.2173 34.2733 36.0816 34.4529C35.9459 34.6365 35.7603 34.7443 35.5248 34.7762L35.5188 34.7343L36.2253 34.7343L36.2253 35.6144L33.3036 35.6144C32.8646 35.6144 32.5193 35.4687 32.2678 35.1773C32.0124 34.886 31.8847 34.4868 31.8847 33.9799ZM33.9083 34.0158C33.9083 34.2274 33.9801 34.399 34.1238 34.5307C34.2715 34.6624 34.4811 34.7283 34.7525 34.7283C35.0239 34.7283 35.2314 34.6604 35.3751 34.5247C35.5228 34.393 35.5966 34.2194 35.5966 34.0039C35.5966 33.7963 35.5228 33.6247 35.3751 33.489C35.2274 33.3573 35.0179 33.2914 34.7465 33.2914C34.4751 33.2914 34.2675 33.3573 34.1238 33.489C33.9801 33.6247 33.9083 33.8003 33.9083 34.0158Z" fill="#FAFAFA"/>
<path d="M33.112 30.989C33.112 30.5419 33.2018 30.1867 33.3814 29.9233C33.561 29.6598 33.8085 29.5161 34.1238 29.4922L34.1238 30.2945C33.9881 30.3144 33.8843 30.3823 33.8125 30.498C33.7446 30.6178 33.7107 30.7814 33.7107 30.989C33.7107 31.1765 33.7367 31.3123 33.7886 31.3961C33.8444 31.4839 33.9223 31.5278 34.0221 31.5278C34.0979 31.5278 34.1558 31.5018 34.1957 31.45C34.2396 31.4021 34.2755 31.3123 34.3034 31.1805L34.4052 30.6896C34.4811 30.3264 34.5948 30.059 34.7465 29.8873C34.9021 29.7157 35.1017 29.6299 35.3452 29.6299C35.6406 29.6299 35.8701 29.7436 36.0337 29.9712C36.2013 30.1987 36.2852 30.516 36.2852 30.9231C36.2852 31.3262 36.2033 31.6475 36.0397 31.887C35.88 32.1265 35.6565 32.2582 35.3691 32.2822L35.3691 31.4799C35.4729 31.4639 35.5507 31.408 35.6026 31.3123C35.6585 31.2165 35.6865 31.0808 35.6865 30.9051C35.6865 30.7455 35.6625 30.6257 35.6146 30.5459C35.5707 30.4701 35.5068 30.4322 35.423 30.4322C35.3512 30.4322 35.2933 30.4641 35.2494 30.5279C35.2095 30.5918 35.1736 30.6976 35.1416 30.8453L35.0279 31.3961C34.964 31.7034 34.8443 31.9349 34.6687 32.0906C34.497 32.2502 34.2935 32.33 34.058 32.33C33.7586 32.33 33.5251 32.2123 33.3575 31.9768C33.1938 31.7453 33.112 31.416 33.112 30.989Z" fill="#FAFAFA"/>
<path d="M33.1717 28.4569L33.8483 28.4569L33.8363 28.5168C33.6168 28.4769 33.4412 28.3572 33.3094 28.1576C33.1777 27.962 33.1119 27.7265 33.1119 27.4511C33.1119 27.1717 33.1757 26.9282 33.3035 26.7207C33.4352 26.5171 33.6188 26.3595 33.8543 26.2477C34.0898 26.136 34.3672 26.0801 34.6865 26.0801C35.0098 26.0801 35.2912 26.138 35.5306 26.2537C35.7701 26.3695 35.9557 26.5311 36.0874 26.7387C36.2192 26.9502 36.285 27.1957 36.285 27.4751C36.285 27.7664 36.2172 28.0019 36.0815 28.1815C35.9457 28.3651 35.7601 28.4729 35.5247 28.5048L35.5187 28.439L37.4824 28.439L37.4824 29.337L33.1717 29.337L33.1717 28.4569ZM33.8303 27.7385C33.8303 27.95 33.9042 28.1217 34.0518 28.2534C34.2035 28.3851 34.419 28.451 34.6984 28.451C34.9778 28.451 35.1914 28.3831 35.3391 28.2474C35.4907 28.1157 35.5666 27.9421 35.5666 27.7265C35.5666 27.519 35.4907 27.3473 35.3391 27.2116C35.1874 27.0799 34.9719 27.0141 34.6925 27.0141C34.4131 27.0141 34.1995 27.0799 34.0518 27.2116C33.9042 27.3473 33.8303 27.523 33.8303 27.7385Z" fill="#FAFAFA"/>
<path d="M33.1703 24.7881L34.1582 24.7881L34.1582 25.7759L33.1703 25.7759L33.1703 24.7881Z" fill="#FAFAFA"/>
</svg>
