<svg width="21" height="16" viewBox="0 0 21 16" fill="none" xmlns="http://www.w3.org/2000/svg">
<path d="M21 8C21 8.23575 20.9078 8.46184 20.7437 8.62854C20.5796 8.79524 20.3571 8.88889 20.125 8.88889H0.875C0.642936 8.88889 0.420376 8.79524 0.256282 8.62854C0.0921874 8.46184 0 8.23575 0 8C0 7.76425 0.0921874 7.53816 0.256282 7.37146C0.420376 7.20476 0.642936 7.11111 0.875 7.11111H20.125C20.3571 7.11111 20.5796 7.20476 20.7437 7.37146C20.9078 7.53816 21 7.76425 21 8ZM0.875 1.77778H20.125C20.3571 1.77778 20.5796 1.68413 20.7437 1.51743C20.9078 1.35073 21 1.12464 21 0.888889C21 0.653141 20.9078 0.427049 20.7437 0.26035C20.5796 0.0936507 20.3571 0 20.125 0H0.875C0.642936 0 0.420376 0.0936507 0.256282 0.26035C0.0921874 0.427049 0 0.653141 0 0.888889C0 1.12464 0.0921874 1.35073 0.256282 1.51743C0.420376 1.68413 0.642936 1.77778 0.875 1.77778ZM20.125 14.2222H0.875C0.642936 14.2222 0.420376 14.3159 0.256282 14.4826C0.0921874 14.6493 0 14.8754 0 15.1111C0 15.3469 0.0921874 15.573 0.256282 15.7397C0.420376 15.9064 0.642936 16 0.875 16H20.125C20.3571 16 20.5796 15.9064 20.7437 15.7397C20.9078 15.573 21 15.3469 21 15.1111C21 14.8754 20.9078 14.6493 20.7437 14.4826C20.5796 14.3159 20.3571 14.2222 20.125 14.2222Z" fill="#121112"/>
</svg>
